<?xml version="1.0" standalone="no"?>
<!DOCTYPE svg PUBLIC "-//W3C//DTD SVG 20010904//EN"
 "http://www.w3.org/TR/2001/REC-SVG-20010904/DTD/svg10.dtd">
<svg version="1.0" xmlns="http://www.w3.org/2000/svg"
 width="128.000000pt" height="128.000000pt" viewBox="0 0 128.000000 128.000000"
 preserveAspectRatio="xMidYMid meet">

<g transform="translate(0.000000,128.000000) scale(0.100000,-0.100000)"
fill="#000000" stroke="none">
<path d="M90 1258 c-33 -17 -51 -35 -67 -68 -23 -44 -23 -45 -23 -550 0 -505
0 -506 23 -550 16 -33 34 -51 67 -68 44 -22 45 -22 550 -22 505 0 506 0 550
22 33 17 51 35 68 68 22 44 22 45 22 550 0 505 0 506 -23 550 -16 33 -34 51
-67 68 -44 22 -45 22 -550 22 -505 0 -506 0 -550 -22z m382 -494 c26 -14 29
-18 16 -30 -11 -11 -19 -12 -46 -2 -24 9 -37 10 -50 2 -31 -20 -20 -47 33 -76
58 -31 75 -52 75 -89 0 -39 -42 -69 -94 -69 -60 0 -86 10 -86 31 0 17 6 18 58
13 46 -5 60 -3 71 10 20 24 7 42 -48 71 -76 38 -95 95 -45 134 32 25 74 27
116 5z m243 4 c28 -13 31 -21 12 -36 -8 -7 -18 -7 -27 -2 -27 17 -66 11 -89
-14 -32 -35 -32 -118 1 -153 19 -21 31 -24 70 -21 34 2 49 -1 53 -11 7 -19 3
-22 -43 -28 -53 -7 -106 12 -128 45 -27 40 -26 141 2 179 37 50 94 66 149 41z
m223 -12 c24 -24 1 -44 -31 -27 -37 20 -72 11 -72 -19 0 -19 12 -31 52 -54
105 -60 86 -156 -30 -156 -51 0 -77 11 -77 30 0 16 8 18 63 17 59 -2 62 -1 65
23 2 21 -6 29 -52 53 -39 21 -58 37 -65 58 -12 35 -1 72 26 88 24 15 101 7
121 -13z"/>
</g>
</svg>
